<?xml version="1.0" encoding="utf-8"?>
<!-- Generator: Adobe Illustrator 18.1.1, SVG Export Plug-In . SVG Version: 6.00 Build 0)  -->
<svg version="1.1" id="Layer_1" xmlns="http://www.w3.org/2000/svg" xmlns:xlink="http://www.w3.org/1999/xlink" x="0px" y="0px"
	 viewBox="0 0 180 180" enable-background="new 0 0 180 180" xml:space="preserve">
<path id="a_1_" fill="none" stroke="#010101" stroke-width="8" stroke-miterlimit="10" d="M163.6,164.8H17.9c-1.1,0-2-0.9-2-2V17.2
	c0-1.1,0.9-2,2-2l145.6,0c1.1,0,2,0.9,2,2v145.6l0,0C165.5,163.9,164.6,164.8,163.6,164.8"/>
<path id="b" fill="none" stroke="#010101" stroke-width="8" stroke-miterlimit="10" d="M16.8,134.8L63,91.4c0.8-0.8,2.1-0.7,2.9,0
	l19.9,19.4c0.8,0.8,2.1,0.8,2.9,0l38.9-38.1c0.8-0.8,2.1-0.8,2.8,0l35.2,36"/>
</svg>
