<?xml version="1.0" encoding="utf-8"?>
<!-- Generator: Adobe Illustrator 18.1.1, SVG Export Plug-In . SVG Version: 6.00 Build 0)  -->
<svg version="1.1" id="Layer_1" xmlns="http://www.w3.org/2000/svg" xmlns:xlink="http://www.w3.org/1999/xlink" x="0px" y="0px"
	 viewBox="0 0 180 180" enable-background="new 0 0 180 180" xml:space="preserve">
<path id="a_1_" fill="none" stroke="#010101" stroke-width="8" stroke-miterlimit="10" d="M146.9,147.9H17.7c-1,0-1.8-0.8-1.8-1.8
	V17c0-1,0.8-1.8,1.8-1.8h129.1c1,0,1.8,0.8,1.8,1.8v129.1l0,0C148.6,147.1,147.8,147.9,146.9,147.9"/>
<path id="b" fill="none" stroke="#010101" stroke-width="8" stroke-miterlimit="10" d="M16.7,121.3l41-38.5c0.7-0.7,1.9-0.6,2.6,0
	L77.9,100c0.7,0.7,1.9,0.7,2.6,0L115,66.2c0.7-0.7,1.9-0.7,2.5,0l31.2,31.9"/>
<path id="c_1_" fill="none" stroke="#000000" stroke-width="7" stroke-linejoin="round" stroke-miterlimit="10" d="M151.2,32.3h16.9
	v134h-134v-16.6"/>
</svg>
