<?xml version="1.0" encoding="utf-8"?>
<!-- Generator: Adobe Illustrator 18.1.1, SVG Export Plug-In . SVG Version: 6.00 Build 0)  -->
<svg version="1.1" id="Layer_1" xmlns="http://www.w3.org/2000/svg" xmlns:xlink="http://www.w3.org/1999/xlink" x="0px" y="0px"
	 viewBox="0 0 180 180" enable-background="new 0 0 180 180" xml:space="preserve">
		<path fill="none" stroke="#000000" stroke-width="8" stroke-miterlimit="10" d="M28.8,5.6C29.6,5,29.6,5,29.6,5
			c0.2-0.2,1.3-0.4,2.4-0.4l18.4,0c1.1,0,2.1,0.9,2.2,2l11.1,49.1c0.4,1,0,2.5-0.7,3.3L50.6,71.5c-0.8,0.8-1,2.2-0.5,3.2
			c0,0,0.3,0.6,1,1.7C63.8,98.2,82,116.4,103.9,129c1.1,0.6,1.4,0.8,1.4,0.8c1,0.5,2.4,0.3,3.2-0.5L121,117c0.8-0.8,2.3-1.1,3.3-0.7
			l49.1,11.1c1.1,0.1,2,1.1,2,2.2l0,18.4c0,1.1-0.6,2.7-1.3,3.5c0,0-19.9,24.2-24.1,23.8c-38.2-4.1-72.5-21.3-98.3-47.1
			C26,102.5,8.7,68.2,4.7,30C4.3,26.5,23,10.5,28.8,5.6"/>

</svg>
